<svg width="24" height="24" viewBox="0 0 24 24" fill="none" xmlns="http://www.w3.org/2000/svg">
<path d="M19.5469 17.954C19.7582 18.1654 19.8769 18.452 19.8769 18.7509C19.8769 19.0498 19.7582 19.3364 19.5469 19.5478C19.3355 19.7591 19.0489 19.8779 18.75 19.8779C18.4511 19.8779 18.1645 19.7591 17.9531 19.5478L12.0009 13.5937L6.04687 19.5459C5.83553 19.7573 5.54888 19.876 5.25 19.876C4.95111 19.876 4.66447 19.7573 4.45312 19.5459C4.24178 19.3346 4.12305 19.0479 4.12305 18.749C4.12305 18.4502 4.24178 18.1635 4.45312 17.9522L10.4072 12L4.455 6.04592C4.24365 5.83457 4.12492 5.54793 4.12492 5.24904C4.12492 4.95016 4.24365 4.66351 4.455 4.45217C4.66634 4.24082 4.95299 4.12209 5.25187 4.12209C5.55076 4.12209 5.8374 4.24082 6.04875 4.45217L12.0009 10.4062L17.955 4.45123C18.1663 4.23989 18.453 4.12115 18.7519 4.12115C19.0508 4.12115 19.3374 4.23989 19.5487 4.45123C19.7601 4.66258 19.8788 4.94922 19.8788 5.24811C19.8788 5.54699 19.7601 5.83364 19.5487 6.04498L13.5947 12L19.5469 17.954Z" fill="white"/>
</svg>
