<svg width="320" height="32" viewBox="0 0 320 32" fill="none" xmlns="http://www.w3.org/2000/svg">
<path d="M17.9638 14.21C19.2287 13.1977 20.5358 10.71 20.5358 8.09543C20.5358 4.09004 17.4156 0.758667 11.5542 0.758667H2.78303C1.26497 0.758667 0 2.0237 0 3.54144V27.4919C0 29.052 1.26503 30.2753 2.78303 30.2753C4.34311 30.2753 5.6084 29.052 5.6084 27.4919V17.6249H11.7226C14.379 17.6249 16.6982 19.0168 16.6982 21.167C16.6982 22.4744 16.2344 23.2755 16.0657 24.0344C15.7283 25.3417 16.0657 26.3957 17.3307 27.0706C18.68 27.7871 20.3668 27.3656 21.1257 26.0166C21.9268 24.6247 22.3063 23.0646 22.3063 21.1248C22.3063 18.0893 20.3668 15.3482 17.9632 14.2095L17.9638 14.21ZM11.1328 12.6499H5.60905V5.69215H11.1328C14.0422 5.69215 15.3495 7.37861 15.3495 9.19205C15.3495 11.3 13.5364 12.6499 11.1328 12.6499Z" fill="white"/>
<path d="M11.1756 30.2795C9.61551 30.2795 8.39258 29.0145 8.39258 27.4962C8.39258 25.9361 9.61551 24.6711 11.1756 24.6711C12.7359 24.6711 13.9586 25.9361 13.9586 27.4962C13.9586 29.0145 12.7359 30.2795 11.1756 30.2795Z" fill="white"/>
<path d="M52.5748 18.2192L45.0694 2.36421C44.6056 1.3943 43.5934 0.76178 42.5394 0.76178C41.4431 0.76178 40.4732 1.39429 40.0094 2.36421L28.6243 26.2729C27.9918 27.6642 28.5822 29.3513 29.9736 30.0255C31.365 30.658 33.0097 30.0679 33.6843 28.6765L36.3409 23.1104H50.5086C51.4785 23.1104 52.3217 22.6043 52.8279 21.8454C53.7978 20.4118 53.0386 19.1891 52.5748 18.2192ZM38.6175 18.3033L42.5391 10.0386L46.5028 18.3033H38.6175Z" fill="white"/>
<path d="M56.7038 27.4931C56.7038 29.0114 55.4388 30.2764 53.8787 30.2764C52.3607 30.2764 51.0957 29.0114 51.0957 27.4931C51.0957 25.933 52.3607 24.668 53.8787 24.668C55.4388 24.668 56.7038 25.933 56.7038 27.4931Z" fill="white"/>
<path d="M77.2383 0.00152588C80.0633 0.00152588 84.0267 0.549946 87.2321 3.16454C88.4124 4.13388 88.4971 5.82092 87.6112 7.08589C86.7683 8.26623 85.0813 8.09756 83.7323 7.38098C81.9612 6.49569 79.895 5.60989 77.2385 5.60989C71.7565 5.60989 67.3289 10.0374 67.3289 15.5194C67.3289 21.0009 71.7564 25.4283 77.2385 25.4283C79.4311 25.4283 82.0034 24.7541 83.8584 23.6995V17.8807C83.8584 16.3624 85.0811 15.0974 86.6412 15.0974C88.2018 15.0974 89.4245 16.3624 89.4245 17.8807V24.5006C89.4245 25.2595 89.4245 25.8502 89.1294 26.4827C88.8761 26.9882 88.4546 27.368 87.9061 27.7476C85.1234 29.7292 80.9072 31.0365 77.2385 31.0365C68.6784 31.0365 61.7207 24.0788 61.7207 15.5194C61.7207 6.91745 68.6782 0.00152588 77.2383 0.00152588Z" fill="white"/>
<path d="M78.2919 15.0981C79.8096 15.0981 81.0746 16.3631 81.0746 17.8814C81.0746 19.4415 79.8096 20.7065 78.2919 20.7065C76.7318 20.7065 75.4668 19.4414 75.4668 17.8814C75.4668 16.3631 76.7318 15.0981 78.2919 15.0981Z" fill="white"/>
<path d="M124.653 24.2492C126.255 25.1768 127.942 25.6406 130.008 25.8516C132.032 26.0621 132.876 27.0743 132.876 28.3817C132.876 29.773 131.948 31.038 129.334 31.038C127.183 31.038 125.032 30.5742 122.882 29.6043C117.527 27.1167 113.816 21.7611 113.816 15.5209C113.816 6.919 120.774 0.00311279 129.334 0.00311279C132.159 0.00311279 136.122 0.551533 139.327 3.16613C140.508 4.13546 140.592 5.82251 139.707 7.08748C138.948 8.22612 137.388 8.26782 135.828 7.42489C134.141 6.45498 131.99 5.61146 129.334 5.61146C123.852 5.61146 119.425 10.0389 119.425 15.521C119.425 19.316 121.491 22.5205 124.654 24.2497L124.653 24.2492Z" fill="white"/>
<path d="M135.148 25.426C135.148 23.9083 136.413 22.6432 137.932 22.6432C139.492 22.6432 140.757 23.9083 140.757 25.426C140.757 26.9861 139.492 28.2511 137.932 28.2511C136.413 28.2511 135.148 26.986 135.148 25.426Z" fill="white"/>
<path d="M148.943 3.54144C148.943 2.0237 150.208 0.758667 151.727 0.758667C153.287 0.758667 154.552 2.0237 154.552 3.54144V13.2399H166.696V11.9326C166.696 10.4149 167.961 9.14983 169.521 9.14983C171.039 9.14983 172.304 10.4149 172.304 11.9326V27.4922C172.304 29.0106 171.039 30.2756 169.521 30.2756C167.96 30.2756 166.696 29.0106 166.696 27.4922V18.5087H154.546V27.4903C154.546 29.0086 153.281 30.2737 151.721 30.2737C150.203 30.2737 148.938 29.0086 148.938 27.4903L148.943 3.54144Z" fill="white"/>
<path d="M166.695 3.54144C166.695 2.0237 167.96 0.758667 169.52 0.758667C171.039 0.758667 172.304 2.0237 172.304 3.54144C172.304 5.10153 171.039 6.36648 169.52 6.36648C167.96 6.36648 166.695 5.10146 166.695 3.54144Z" fill="white"/>
<path d="M204.77 18.2192L197.265 2.36421C196.801 1.3943 195.789 0.76178 194.735 0.76178C193.638 0.76178 192.669 1.39429 192.205 2.36421L180.82 26.2729C180.187 27.6642 180.778 29.3513 182.169 30.0255C183.56 30.658 185.205 30.0679 185.88 28.6765L188.536 23.1104H202.704C203.674 23.1104 204.517 22.6043 205.023 21.8454C205.993 20.4118 205.234 19.1891 204.77 18.2192ZM190.813 18.3033L194.734 10.0386L198.698 18.3033H190.813Z" fill="white"/>
<path d="M208.903 27.4931C208.903 29.0114 207.638 30.2764 206.078 30.2764C204.56 30.2764 203.295 29.0114 203.295 27.4931C203.295 25.933 204.56 24.668 206.078 24.668C207.638 24.668 208.903 25.933 208.903 27.4931Z" fill="white"/>
<path d="M223.954 27.4919C223.954 29.0102 222.731 30.2753 221.17 30.2753C219.61 30.2753 218.388 29.0102 218.388 27.4919V6.3665H212.273C210.755 6.3665 209.49 5.10146 209.49 3.54144C209.49 2.0237 210.755 0.758667 212.273 0.758667H221.17C222.857 0.758667 223.954 2.0237 223.954 3.54144V27.4919Z" fill="white"/>
<path d="M232.854 3.54144C232.854 5.10153 231.589 6.36648 230.071 6.36648C228.511 6.36648 227.246 5.10146 227.246 3.54144C227.246 2.0237 228.511 0.758667 230.071 0.758667C231.589 0.758667 232.854 2.0237 232.854 3.54144Z" fill="white"/>
<path d="M251.508 27.4919C251.508 29.0102 250.286 30.2753 248.725 30.2753C247.165 30.2753 245.942 29.0102 245.942 27.4919V6.3665H239.828C238.31 6.3665 237.045 5.10146 237.045 3.54144C237.045 2.0237 238.31 0.758667 239.828 0.758667H248.725C250.412 0.758667 251.508 2.0237 251.508 3.54144V27.4919Z" fill="white"/>
<path d="M260.401 3.54144C260.401 5.10153 259.136 6.36648 257.618 6.36648C256.058 6.36648 254.793 5.10146 254.793 3.54144C254.793 2.0237 256.058 0.758667 257.618 0.758667C259.136 0.758667 260.401 2.0237 260.401 3.54144Z" fill="white"/>
<path d="M270.334 30.28C268.816 30.28 267.551 29.0149 267.551 27.4966V3.54612C267.551 2.02838 268.816 0.763367 270.334 0.763367H276.153C277.671 0.763367 278.936 2.02838 278.936 3.54612C278.936 5.10621 277.671 6.37118 276.153 6.37118H273.159V12.8231H282.942C284.502 12.8231 285.725 13.9617 285.725 15.5218C285.725 17.0395 284.502 18.1781 282.942 18.1781H273.159V24.6719H284.67C286.231 24.6719 287.453 25.9369 287.453 27.4969C287.453 29.0153 286.231 30.2803 284.67 30.2803L270.334 30.28Z" fill="white"/>
<path d="M284.542 6.36648C282.982 6.36648 281.717 5.10146 281.717 3.54144C281.717 2.0237 282.982 0.758667 284.542 0.758667C286.06 0.758667 287.325 2.0237 287.325 3.54144C287.325 5.10153 286.06 6.36648 284.542 6.36648Z" fill="white"/>
<path d="M318.459 10.1618C318.459 4.42756 314.537 0.758667 308.507 0.758667H299.442C297.923 0.758667 296.658 2.0237 296.658 3.54144V27.4919C296.658 29.0102 297.923 30.2753 299.442 30.2753C301.002 30.2753 302.267 29.0102 302.267 27.4919V19.9023H308.381L309.646 21.9261C310.447 23.2334 312.176 23.6132 313.483 22.7697C316.055 21.1249 313.989 18.4262 313.989 18.4262C316.899 16.7821 318.459 13.7886 318.459 10.1618ZM308.381 15.0536H302.267V6.19814H308.507C311.417 6.19814 312.85 7.92754 312.85 10.4992C312.85 12.8605 311.712 15.0536 308.381 15.0536Z" fill="white"/>
<path d="M316.565 30.2346C315.046 30.2346 313.781 28.9695 313.781 27.4518C313.781 25.8911 315.046 24.6262 316.565 24.6262C318.125 24.6262 319.347 25.8912 319.347 27.4518C319.347 28.9695 318.125 30.2346 316.565 30.2346Z" fill="white"/>
</svg>
